<svg width="24" height="24" viewBox="0 0 24 24" fill="none" xmlns="http://www.w3.org/2000/svg">
<path d="M16 4C17.8856 4 18.8283 4.00018 19.4141 4.58594C19.9998 5.17172 20 6.11438 20 8V17C20 18.8856 19.9998 19.8283 19.4141 20.4141C18.8283 20.9998 17.8856 21 16 21H11C9.11442 21 8.17172 20.9998 7.58594 20.4141C7.46501 20.2931 7.3701 20.1565 7.29395 20H9C10.1046 20 11 19.1046 11 18C11 16.8954 10.1046 16 9 16H7V15H9C10.1046 15 11 14.1046 11 13C11 11.8954 10.1046 11 9 11H7V10H9C10.1046 10 11 9.10457 11 8C11 6.89543 10.1046 6 9 6H7.05078C7.11472 5.34996 7.25936 4.91253 7.58594 4.58594C8.17172 4.00016 9.11441 4 11 4H16ZM9 17C9.55228 17 10 17.4477 10 18C10 18.5523 9.55228 19 9 19H5C4.44772 19 4 18.5523 4 18C4 17.4477 4.44772 17 5 17H9ZM9 12C9.55228 12 10 12.4477 10 13C10 13.5523 9.55228 14 9 14H5C4.44772 14 4 13.5523 4 13C4 12.4477 4.44772 12 5 12H9ZM16 7C15.4477 7.00003 15 7.44773 15 8V10C15 10.5523 15.4477 11 16 11C16.5523 11 17 10.5523 17 10V8C17 7.44773 16.5523 7.00003 16 7ZM9 7C9.55228 7 10 7.44772 10 8C10 8.55228 9.55228 9 9 9H5C4.44772 9 4 8.55228 4 8C4 7.44772 4.44772 7 5 7H9Z" fill="#9B1E2A"/>
</svg>
