<svg width="24" height="24" viewBox="0 0 24 24" fill="none" xmlns="http://www.w3.org/2000/svg">
<circle cx="12" cy="8" r="2.5" stroke="#9B1E2A" stroke-linecap="round"/>
<path d="M13.7679 6.5C13.9657 6.15743 14.2607 5.88121 14.6154 5.70625C14.9702 5.5313 15.3689 5.46548 15.7611 5.51711C16.1532 5.56874 16.5213 5.73551 16.8187 5.99632C17.1161 6.25713 17.3295 6.60028 17.4319 6.98236C17.5342 7.36445 17.521 7.76831 17.3939 8.14288C17.2667 8.51745 17.0313 8.8459 16.7175 9.08671C16.4037 9.32751 16.0255 9.46985 15.6308 9.49572C15.2361 9.52159 14.8426 9.42983 14.5 9.23205" stroke="#9B1E2A"/>
<path d="M10.2321 6.5C10.0343 6.15743 9.73935 5.88121 9.38458 5.70625C9.02981 5.5313 8.63113 5.46548 8.23895 5.51711C7.84677 5.56874 7.47871 5.73551 7.18131 5.99632C6.88391 6.25713 6.67053 6.60028 6.56815 6.98236C6.46577 7.36445 6.47899 7.76831 6.60614 8.14288C6.73329 8.51745 6.96866 8.8459 7.28248 9.08671C7.5963 9.32751 7.97448 9.46985 8.36919 9.49572C8.76391 9.52159 9.15743 9.42983 9.5 9.23205" stroke="#9B1E2A"/>
<path d="M12 12.5C16.0802 12.5 17.1335 15.8022 17.4054 17.507C17.4924 18.0524 17.0523 18.5 16.5 18.5H7.5C6.94771 18.5 6.50763 18.0524 6.59461 17.507C6.86649 15.8022 7.91976 12.5 12 12.5Z" stroke="#9B1E2A" stroke-linecap="round"/>
<path d="M15.5002 11.5L15.5002 11H15.5002V11.5ZM19.2961 15.416L19.7811 15.2946L19.7811 15.2945L19.2961 15.416ZM17.1799 16.5L16.6996 16.639L16.804 17H17.1799V16.5ZM13.0871 12.5859L12.7179 12.2488L12.0974 12.9283L13.0051 13.0792L13.0871 12.5859ZM15.5002 11.5L15.5002 12C16.5277 12 17.2493 12.5026 17.778 13.2068C18.3173 13.9251 18.6339 14.8303 18.8111 15.5375L19.2961 15.416L19.7811 15.2945C19.5899 14.5313 19.2325 13.4785 18.5777 12.6065C17.9124 11.7203 16.9202 11.0001 15.5002 11L15.5002 11.5ZM19.2961 15.416L18.8111 15.5375C18.8649 15.7526 18.7069 16 18.3947 16V16.5V17C19.2658 17 20.0147 16.2272 19.7811 15.2946L19.2961 15.416ZM18.3947 16.5V16H17.1799V16.5V17H18.3947V16.5ZM17.1799 16.5L17.6602 16.361C17.189 14.7329 16.0189 12.5663 13.1691 12.0927L13.0871 12.5859L13.0051 13.0792C15.3052 13.4614 16.2774 15.1799 16.6996 16.639L17.1799 16.5ZM13.0871 12.5859L13.4563 12.9231C13.9567 12.3751 14.6108 12 15.5002 12V11.5V11C14.283 11 13.3736 11.5306 12.7179 12.2488L13.0871 12.5859Z" fill="#9B1E2A"/>
<path d="M8.50049 11.5L8.50055 11H8.50049V11.5ZM10.9116 12.5859L10.9937 13.0792L11.9014 12.9281L11.2808 12.2487L10.9116 12.5859ZM6.8208 16.5V17H7.19662L7.30109 16.639L6.8208 16.5ZM5.60498 16.5L5.60497 17H5.60498V16.5ZM4.70361 15.416L4.21859 15.2945L4.21859 15.2946L4.70361 15.416ZM8.50049 11.5L8.50042 12C9.3889 12.0001 10.042 12.3752 10.5424 12.9231L10.9116 12.5859L11.2808 12.2487C10.6255 11.5313 9.71746 11.0002 8.50055 11L8.50049 11.5ZM10.9116 12.5859L10.8295 12.0927C7.98065 12.5668 6.81153 14.7334 6.34051 16.361L6.8208 16.5L7.30109 16.639C7.7233 15.18 8.69463 13.4617 10.9937 13.0792L10.9116 12.5859ZM6.8208 16.5V16H5.60498V16.5V17H6.8208V16.5ZM5.60498 16.5L5.60499 16C5.29278 16 5.13477 15.7526 5.18864 15.5375L4.70361 15.416L4.21859 15.2946C3.98502 16.2272 4.73396 17 5.60497 17L5.60498 16.5ZM4.70361 15.416L5.18863 15.5375C5.36573 14.8304 5.68258 13.9252 6.22204 13.2069C6.75094 12.5026 7.47281 12 8.50049 12V11.5V11C7.0804 11 6.08796 11.7202 5.42244 12.6063C4.76748 13.4784 4.40977 14.5312 4.21859 15.2945L4.70361 15.416Z" fill="#9B1E2A"/>
</svg>
