<svg width="24" height="24" viewBox="0 0 24 24" fill="none" xmlns="http://www.w3.org/2000/svg">
<path d="M12.3984 19.8037L12.8589 20.6914L12.8589 20.6914L12.3984 19.8037ZM11.6016 19.8037L11.1411 20.6914L11.1411 20.6914L11.6016 19.8037ZM12 4V5C15.3137 5 18 7.68629 18 11H19H20C20 6.58172 16.4183 3 12 3V4ZM19 11H18C18 13.1456 16.9081 14.9156 15.5453 16.2902C14.1835 17.6639 12.6348 18.5545 11.938 18.916L12.3984 19.8037L12.8589 20.6914C13.6455 20.2833 15.3976 19.28 16.9657 17.6983C18.5329 16.1174 20 13.8703 20 11H19ZM12.3984 19.8037L11.938 18.916C11.9521 18.9087 11.9738 18.9021 12 18.9021C12.0262 18.9021 12.0479 18.9087 12.062 18.916L11.6016 19.8037L11.1411 20.6914C11.6827 20.9723 12.3173 20.9723 12.8589 20.6914L12.3984 19.8037ZM11.6016 19.8037L12.062 18.916C11.3652 18.5545 9.81648 17.6639 8.45465 16.2902C7.0919 14.9156 6 13.1456 6 11H5H4C4 13.8703 5.46714 16.1174 7.0343 17.6983C8.60239 19.28 10.3545 20.2833 11.1411 20.6914L11.6016 19.8037ZM5 11H6C6 7.68629 8.68629 5 12 5V4V3C7.58172 3 4 6.58172 4 11H5ZM12 8V7C9.79086 7 8 8.79086 8 11H9H10C10 9.89543 10.8954 9 12 9V8ZM9 11H8C8 13.2091 9.79086 15 12 15V14V13C10.8954 13 10 12.1046 10 11H9ZM12 14V15C14.2091 15 16 13.2091 16 11H15H14C14 12.1046 13.1046 13 12 13V14ZM15 11H16C16 8.79086 14.2091 7 12 7V8V9C13.1046 9 14 9.89543 14 11H15Z" fill="white"/>
</svg>
